<svg width="255" height="132" viewBox="0 0 255 132" fill="none" xmlns="http://www.w3.org/2000/svg">
<rect x="-0.25" y="0.25" width="0.5" height="124.5" transform="matrix(-1 0 0 1 197.5 0)" stroke="#ECEAF3" stroke-width="0.5"/>
<rect x="-0.25" y="0.25" width="0.5" height="124.5" transform="matrix(-1 0 0 1 148.5 0)" stroke="#ECEAF3" stroke-width="0.5"/>
<rect x="-0.25" y="0.25" width="0.5" height="124.5" transform="matrix(-1 0 0 1 99.5 0)" stroke="#ECEAF3" stroke-width="0.5"/>
<rect x="-0.25" y="0.25" width="0.5" height="124.5" transform="matrix(-1 0 0 1 50.5 0)" stroke="#ECEAF3" stroke-width="0.5"/>
<rect x="-0.25" y="0.25" width="0.5" height="124.5" transform="matrix(-1 0 0 1 1.5 0)" stroke="#ECEAF3" stroke-width="0.5"/>
<rect x="-0.25" y="0.25" width="0.5" height="124.5" transform="matrix(-1 0 0 1 246.5 0)" stroke="#ECEAF3" stroke-width="0.5"/>
<path d="M21.9308 52.8489L2.70916 123.729C2.57033 124.241 2.5 124.769 2.5 125.299V126C2.5 129.314 5.18628 132 8.49999 132H244C247.314 132 250 129.314 250 126V17L230.184 69.4731C228.448 74.0715 222.222 74.7453 219.542 70.6249L212.392 59.6327C209.478 55.1532 202.603 56.4305 201.493 61.6577L196.478 85.2691C195.257 91.0177 187.356 91.7655 185.078 86.3481L182.583 80.4131C180.21 74.7707 171.904 75.8855 171.103 81.9537L167.612 108.415C166.797 114.594 158.267 115.587 156.054 109.76L149.5 92.5L139.867 61.9949C138.136 56.5137 130.432 56.3684 128.496 61.7803L117.449 92.654C116.179 96.2042 111.988 97.7166 108.743 95.7957L87.0415 82.9466C84.6676 81.5411 81.6412 81.9355 79.7068 83.9025L62.8221 101.071C59.817 104.127 54.6697 103.138 53.0115 99.1858L33.2544 52.0979C31.0452 46.8328 23.4252 47.3382 21.9308 52.8489Z" fill="#2ED6A3" fill-opacity="0.15"/>
<path d="M2.5 124.5L21.9308 52.8489C23.4252 47.3382 31.0452 46.8328 33.2544 52.0979L53.0115 99.1858C54.6697 103.138 59.817 104.127 62.8221 101.071L79.7068 83.9025C81.6412 81.9355 84.6676 81.5411 87.0415 82.9466L108.743 95.7957C111.988 97.7166 116.179 96.2042 117.449 92.654L128.496 61.7803C130.432 56.3684 138.136 56.5138 139.867 61.9949L149.5 92.5L156.054 109.76C158.267 115.587 166.797 114.594 167.612 108.415L171.103 81.9537C171.904 75.8855 180.21 74.7707 182.583 80.4131L185.078 86.3481C187.356 91.7655 195.257 91.0177 196.478 85.2691L201.493 61.6577C202.603 56.4305 209.478 55.1532 212.392 59.6327L219.542 70.6249C222.222 74.7453 228.448 74.0715 230.184 69.4731L250 17" stroke="#00A389" stroke-width="4"/>
<circle cx="248" cy="23" r="7" fill="#00A389"/>
</svg>
