<svg width="254" height="139" viewBox="0 0 254 139" fill="none" xmlns="http://www.w3.org/2000/svg">
<rect x="-0.25" y="0.25" width="0.5" height="124.5" transform="matrix(-1 0 0 1 198.5 14)" stroke="#ECEAF3" stroke-width="0.5"/>
<rect x="-0.25" y="0.25" width="0.5" height="124.5" transform="matrix(-1 0 0 1 149.5 14)" stroke="#ECEAF3" stroke-width="0.5"/>
<rect x="-0.25" y="0.25" width="0.5" height="124.5" transform="matrix(-1 0 0 1 100.5 14)" stroke="#ECEAF3" stroke-width="0.5"/>
<rect x="-0.25" y="0.25" width="0.5" height="124.5" transform="matrix(-1 0 0 1 51.5 14)" stroke="#ECEAF3" stroke-width="0.5"/>
<rect x="-0.25" y="0.25" width="0.5" height="124.5" transform="matrix(-1 0 0 1 2.5 14)" stroke="#ECEAF3" stroke-width="0.5"/>
<rect x="-0.25" y="0.25" width="0.5" height="124.5" transform="matrix(-1 0 0 1 247.5 14)" stroke="#ECEAF3" stroke-width="0.5"/>
<path d="M207.823 87.211L248 9V133C248 136.314 245.314 139 242 139H7.99998C4.68628 139 1.99998 136.314 1.99998 133V98.5191C1.99998 97.2988 2.37209 96.1075 3.06664 95.1041L6.81189 89.6937C8.64693 87.0427 12.2489 86.3159 14.9683 88.0479L27.6354 96.1152C31.1279 98.3395 35.7704 96.4413 36.704 92.4073L46.5318 49.9427C47.6964 44.9108 54.2518 43.6039 57.2571 47.8045L64.5513 58L83.7182 87.823L95.2947 107.871C97.515 111.717 102.998 111.902 105.472 108.215L120.107 86.4128C122.612 82.6811 128.179 82.9268 130.346 86.8646L149.924 122.45C152.406 126.961 159.043 126.457 160.814 121.622L175.333 82.0052C177.117 77.1366 183.82 76.6709 186.261 81.246L192.464 92.8748C194.458 96.6143 199.596 97.1632 202.335 93.9295L207.064 88.3479C207.36 87.9991 207.614 87.6176 207.823 87.211Z" fill="#2ED6A3" fill-opacity="0.15"/>
<path d="M248 6.5L207.833 87.1728C207.618 87.6047 207.351 88.009 207.04 88.377L202.336 93.9294C199.596 97.1631 194.458 96.6143 192.464 92.8748L186.261 81.246C183.821 76.6709 177.118 77.1366 175.333 82.0052L160.815 121.622C159.043 126.457 152.406 126.961 149.924 122.45L130.346 86.8646C128.18 82.9268 122.612 82.6811 120.107 86.4128L105.473 108.215C102.998 111.902 97.5153 111.717 95.295 107.871L83.7184 87.8229L64.5515 58L57.2573 47.8045C54.2521 43.6038 47.6966 44.9108 46.5321 49.9427L36.7043 92.4073C35.7706 96.4413 31.1282 98.3395 27.6357 96.1152L14.9686 88.0478C12.2492 86.3159 8.64717 87.0427 6.81213 89.6936L2.00021 96.6451" stroke="#00A389" stroke-width="4"/>
<circle cx="247" cy="7" r="7" fill="#00A389"/>
</svg>
