<svg width="251" height="126" viewBox="0 0 251 126" fill="none" xmlns="http://www.w3.org/2000/svg">
<rect x="-0.25" y="0.25" width="0.5" height="124.5" transform="matrix(-1 0 0 1 198.5 0)" stroke="#ECEAF3" stroke-width="0.5"/>
<rect x="-0.25" y="0.25" width="0.5" height="124.5" transform="matrix(-1 0 0 1 149.5 0)" stroke="#ECEAF3" stroke-width="0.5"/>
<rect x="-0.25" y="0.25" width="0.5" height="124.5" transform="matrix(-1 0 0 1 100.5 0)" stroke="#ECEAF3" stroke-width="0.5"/>
<rect x="-0.25" y="0.25" width="0.5" height="124.5" transform="matrix(-1 0 0 1 51.5 0)" stroke="#ECEAF3" stroke-width="0.5"/>
<rect x="-0.25" y="0.25" width="0.5" height="124.5" transform="matrix(-1 0 0 1 2.5 0)" stroke="#ECEAF3" stroke-width="0.5"/>
<rect x="-0.25" y="0.25" width="0.5" height="124.5" transform="matrix(-1 0 0 1 247.5 0)" stroke="#ECEAF3" stroke-width="0.5"/>
<path d="M229.549 100.805H241C244.314 100.805 247 103.492 247 106.805V120C247 123.314 244.314 126 241 126H8C4.68629 126 2 123.314 2 120V31L14.9115 68.4693C16.3301 72.5859 21.5233 73.8683 24.695 70.8851L33.2491 62.8394C36.3785 59.896 41.4968 61.099 42.9872 65.1284L58.6889 107.578C60.5058 112.49 67.3028 112.879 69.669 108.207L76.6951 94.3333L90.649 62.1907C92.7334 57.3894 99.5367 57.3727 101.645 62.1637L109.799 80.6968C110.757 82.8746 112.912 84.2804 115.291 84.2804H127.043C129.676 84.2804 132.001 82.5644 132.777 80.0488L143.471 45.3739C145.069 40.1928 152.175 39.6205 154.581 44.479L174.771 85.2385C176.797 89.3283 182.466 89.7485 185.073 86.002L197.414 68.2649C199.925 64.6563 205.336 64.8839 207.535 68.6906L224.353 97.8065C225.425 99.6623 227.405 100.805 229.549 100.805Z" fill="#FF5B5B" fill-opacity="0.15"/>
<path d="M247 100.438H229.539C227.401 100.438 225.425 99.3 224.351 97.451L207.528 68.4816C205.327 64.6906 199.936 64.4634 197.423 68.0556L185.063 85.7264C182.454 89.4564 176.805 89.0366 174.776 84.962L154.575 44.395C152.163 39.5509 145.076 40.124 143.473 45.2926L132.781 79.7769C132.002 82.2882 129.679 84 127.05 84H115.283C112.908 84 110.756 82.5991 109.795 80.4271L101.64 61.9889C99.5271 57.2121 92.7428 57.2289 90.6536 62.0161L76.6951 94L69.6625 107.813C67.2913 112.471 60.5132 112.081 58.6918 107.182L42.9869 64.948C41.4935 60.9318 36.3929 59.7304 33.2639 62.6579L24.6801 70.6891C21.5087 73.6564 16.333 72.3756 14.9114 68.2717L2 31" stroke="#FF5B5B" stroke-width="4"/>
<circle cx="244" cy="100" r="7" fill="#FF5B5B"/>
</svg>
